<svg xmlns="http://www.w3.org/2000/svg" xmlns:xlink="http://www.w3.org/1999/xlink" width="500" zoomAndPan="magnify" viewBox="0 0 375 374.999991" height="500" preserveAspectRatio="xMidYMid meet" version="1.0"><defs><g/></defs><g fill="#ffffff" fill-opacity="1"><g transform="translate(93.179545, 284.215889)"><g><path d="M 173.171875 -215.4375 L 173.171875 0 L 125.953125 0 L 56.34375 -133.6875 L 57.71875 -90.3125 L 57.71875 0 L 15.46875 0 L 15.46875 -215.4375 L 62.703125 -215.4375 L 132.03125 -81.75 L 130.640625 -125.125 L 130.640625 -215.4375 Z M 173.171875 -215.4375 "/></g></g></g><g fill="#ffffff" fill-opacity="1"><g transform="translate(4.581526, 285.298864)"><g><path d="M 15.296875 -104.9375 L 15.296875 -110.9375 C 15.296875 -128.320312 16.539062 -143.8125 19.03125 -157.40625 C 21.53125 -171 24.925781 -183.242188 29.21875 -194.140625 C 33.519531 -205.035156 38.46875 -215.128906 44.0625 -224.421875 C 49.664062 -233.710938 55.566406 -242.859375 61.765625 -251.859375 L 84.84375 -251.859375 C 75.65625 -239.066406 67.410156 -225.921875 60.109375 -212.421875 C 52.816406 -198.929688 47.070312 -184.039062 42.875 -167.75 C 38.675781 -151.457031 36.578125 -132.519531 36.578125 -110.9375 L 36.578125 -104.9375 C 36.578125 -83.351562 38.675781 -64.414062 42.875 -48.125 C 47.070312 -31.832031 52.816406 -16.988281 60.109375 -3.59375 C 67.410156 9.789062 75.65625 22.984375 84.84375 35.984375 L 61.765625 35.984375 C 55.566406 26.984375 49.664062 17.835938 44.0625 8.546875 C 38.46875 -0.742188 33.519531 -10.835938 29.21875 -21.734375 C 24.925781 -32.628906 21.53125 -44.875 19.03125 -58.46875 C 16.539062 -72.0625 15.296875 -87.550781 15.296875 -104.9375 Z M 15.296875 -104.9375 "/></g></g></g><g fill="#ffffff" fill-opacity="1"><g transform="translate(275.362398, 285.298864)"><g><path d="M 79.75 -110.9375 L 79.75 -104.9375 C 79.75 -81.75 77.648438 -61.859375 73.453125 -45.265625 C 69.253906 -28.679688 63.609375 -13.992188 56.515625 -1.203125 C 49.421875 11.585938 41.675781 23.984375 33.28125 35.984375 L 10.1875 35.984375 C 19.382812 22.984375 27.628906 9.789062 34.921875 -3.59375 C 42.222656 -16.988281 47.972656 -31.832031 52.171875 -48.125 C 56.367188 -64.414062 58.46875 -83.351562 58.46875 -104.9375 L 58.46875 -110.9375 C 58.46875 -132.519531 56.367188 -151.457031 52.171875 -167.75 C 47.972656 -184.039062 42.222656 -198.929688 34.921875 -212.421875 C 27.628906 -225.921875 19.382812 -239.066406 10.1875 -251.859375 L 33.28125 -251.859375 C 41.675781 -240.066406 49.421875 -227.722656 56.515625 -214.828125 C 63.609375 -201.929688 69.253906 -187.1875 73.453125 -170.59375 C 77.648438 -154.007812 79.75 -134.125 79.75 -110.9375 Z M 79.75 -110.9375 "/></g></g></g></svg>
