<svg xmlns="http://www.w3.org/2000/svg" xmlns:xlink="http://www.w3.org/1999/xlink" width="500" zoomAndPan="magnify" viewBox="0 0 375 374.999991" height="500" preserveAspectRatio="xMidYMid meet" version="1.0"><defs><g/></defs><g fill="#ffffff" fill-opacity="1"><g transform="translate(13.603803, 281.570722)"><g><path d="M 166.953125 -207.6875 L 166.953125 0 L 121.421875 0 L 54.3125 -128.875 L 55.65625 -87.0625 L 55.65625 0 L 14.90625 0 L 14.90625 -207.6875 L 60.4375 -207.6875 L 127.28125 -78.8125 L 125.9375 -120.625 L 125.9375 -207.6875 Z M 166.953125 -207.6875 "/></g></g></g><g fill="#ffffff" fill-opacity="1"><g transform="translate(195.455353, 259.002703)"><g><path d="M 6.75 -60.546875 L 6.75 -64 C 6.75 -77.257812 7.84375 -88.734375 10.03125 -98.421875 C 12.21875 -108.109375 15.1875 -116.671875 18.9375 -124.109375 C 22.6875 -131.554688 26.867188 -138.625 31.484375 -145.3125 L 59.859375 -145.3125 C 55.128906 -138.039062 50.800781 -130.394531 46.875 -122.375 C 42.957031 -114.363281 39.84375 -105.570312 37.53125 -96 C 35.226562 -86.4375 34.078125 -75.769531 34.078125 -64 L 34.078125 -60.546875 C 34.078125 -48.785156 35.226562 -38.144531 37.53125 -28.625 C 39.84375 -19.113281 42.957031 -10.320312 46.875 -2.25 C 50.800781 5.820312 55.128906 13.492188 59.859375 20.765625 L 31.484375 20.765625 C 26.867188 14.066406 22.6875 6.972656 18.9375 -0.515625 C 15.1875 -8.015625 12.21875 -16.578125 10.03125 -26.203125 C 7.84375 -35.835938 6.75 -47.285156 6.75 -60.546875 Z M 6.75 -60.546875 "/></g></g></g><g fill="#ffffff" fill-opacity="1"><g transform="translate(258.595361, 259.002703)"><g/></g></g><g fill="#ffffff" fill-opacity="1"><g transform="translate(293.192619, 259.002703)"><g><path d="M 56.390625 -64 L 56.390625 -60.546875 C 56.390625 -47.285156 55.289062 -35.835938 53.09375 -26.203125 C 50.90625 -16.578125 47.96875 -8.015625 44.28125 -0.515625 C 40.59375 6.972656 36.382812 14.066406 31.65625 20.765625 L 3.28125 20.765625 C 8.125 13.492188 12.476562 5.820312 16.34375 -2.25 C 20.207031 -10.320312 23.289062 -19.113281 25.59375 -28.625 C 27.90625 -38.144531 29.0625 -48.785156 29.0625 -60.546875 L 29.0625 -64 C 29.0625 -75.769531 27.90625 -86.4375 25.59375 -96 C 23.289062 -105.570312 20.207031 -114.363281 16.34375 -122.375 C 12.476562 -130.394531 8.125 -138.039062 3.28125 -145.3125 L 31.65625 -145.3125 C 36.382812 -138.625 40.59375 -131.554688 44.28125 -124.109375 C 47.96875 -116.671875 50.90625 -108.109375 53.09375 -98.421875 C 55.289062 -88.734375 56.390625 -77.257812 56.390625 -64 Z M 56.390625 -64 "/></g></g></g><g fill="#ffffff" fill-opacity="1"><g transform="translate(238.705566, 233.770713)"><g><path d="M 2.265625 -70.65625 L 26.53125 -70.65625 L 37.1875 -46.796875 L 47.859375 -70.65625 L 72.25 -70.65625 L 54.125 -36.53125 L 72.25 0 L 48.53125 0 L 37.1875 -25.328125 L 26 0 L 2.265625 0 L 20.265625 -36.53125 Z M 2.265625 -70.65625 "/></g></g></g></svg>
